<svg xmlns="http://www.w3.org/2000/svg" viewBox="0 0 32 32"><defs><style>.cls-1{fill:#231f20;}</style></defs><g id="bee"><path class="cls-1" d="M29.15,12.73l-.34-.42a4.28,4.28,0,0,0-5.1-1.13l-1.13.52a1,1,0,1,0,.84,1.82L24.55,13a2.27,2.27,0,0,1,2.71.58l.34.42a1.71,1.71,0,0,1,.06,2.13,2.18,2.18,0,0,1-1.79.88H21.35a15.14,15.14,0,0,0-.46-2.6,5.06,5.06,0,0,0-1.12-3A4.83,4.83,0,0,0,19,10.7V10a3,3,0,0,0-.83-2.06l.58-1a1.47,1.47,0,0,1,1.8-.82l1.08.43a1,1,0,1,0,.74-1.85L21.3,4.24A3.42,3.42,0,0,0,17,5.94L16.39,7a1.92,1.92,0,0,0-.78,0L15,5.94a3.42,3.42,0,0,0-4.3-1.7l-1.07.43a1,1,0,1,0,.74,1.85l1.08-.43a1.47,1.47,0,0,1,1.8.82l.58,1A3,3,0,0,0,13,10v.7a4.61,4.61,0,0,0-1.58,2.15L8.29,11.39a4.3,4.3,0,0,0-5.1,1.14L2.85,13a3.72,3.72,0,0,0-.14,4.56,4.21,4.21,0,0,0,3.42,1.71h.39l-.06.08a3.16,3.16,0,0,0,.36,3.78A2.84,2.84,0,0,0,8.89,24a2.44,2.44,0,0,0,.71-.1l2.05-.55a7.78,7.78,0,0,0,.49.95,10.81,10.81,0,0,0,3.3,3.53,1,1,0,0,0,1.12,0,10.81,10.81,0,0,0,3.3-3.53,9.53,9.53,0,0,0,.58-1.15l2,.53a2.44,2.44,0,0,0,.71.1,2.8,2.8,0,0,0,2.07-.92,3.16,3.16,0,0,0,.36-3.78L25.48,19h.39a4.21,4.21,0,0,0,3.42-1.71A3.72,3.72,0,0,0,29.15,12.73ZM13.24,22a11.18,11.18,0,0,1-.44-6h6.4a12.08,12.08,0,0,1,.21,2.1A.92.92,0,0,0,19,18H15a1,1,0,0,0,0,2h4a1.07,1.07,0,0,0,.3-.06A9.51,9.51,0,0,1,18.76,22Zm.53-9.29A2.61,2.61,0,0,1,14.7,12h2.6a2.61,2.61,0,0,1,.93.71A2.85,2.85,0,0,1,18.82,14H13.18A2.85,2.85,0,0,1,13.77,12.71ZM17,10H15a1,1,0,0,1,2,0ZM4.34,16.34a1.71,1.71,0,0,1,.06-2.13l.34-.42a2.27,2.27,0,0,1,2.71-.58L11,14.86a14.5,14.5,0,0,0-.37,2.36H6.13A2.18,2.18,0,0,1,4.34,16.34ZM9.08,22a.76.76,0,0,1-.79-.25,1.17,1.17,0,0,1-.12-1.37l.69-1.13h1.76A12.26,12.26,0,0,0,11,21.46ZM16,25.76A9,9,0,0,1,14.32,24h3.36A9,9,0,0,1,16,25.76Zm7.83-5.63a1.17,1.17,0,0,1-.12,1.37.76.76,0,0,1-.79.25l-1.84-.49A12.37,12.37,0,0,0,21.39,19h1.74Z"/></g></svg>